<?xml version="1.0" encoding="UTF-8" standalone="no"?>
<!-- Created with Inkscape (http://www.inkscape.org/) -->

<svg
   xmlns:dc="http://purl.org/dc/elements/1.1/"
   xmlns:cc="http://creativecommons.org/ns#"
   xmlns:rdf="http://www.w3.org/1999/02/22-rdf-syntax-ns#"
   xmlns:svg="http://www.w3.org/2000/svg"
   xmlns="http://www.w3.org/2000/svg"
   xmlns:sodipodi="http://sodipodi.sourceforge.net/DTD/sodipodi-0.dtd"
   xmlns:inkscape="http://www.inkscape.org/namespaces/inkscape"
   width="240mm"
   height="120mm"
   viewBox="0 0 240 120"
   version="1.1"
   id="svg8"
   inkscape:version="0.92.5 (2060ec1f9f, 2020-04-08)"
   sodipodi:docname="example.svg">
  <defs
     id="defs2" />
  <sodipodi:namedview
     id="base"
     pagecolor="#ffffff"
     bordercolor="#666666"
     borderopacity="1.0"
     inkscape:pageopacity="0.0"
     inkscape:pageshadow="2"
     inkscape:zoom="1.406257"
     inkscape:cx="421.77409"
     inkscape:cy="247.21516"
     inkscape:document-units="mm"
     inkscape:current-layer="layer1"
     showgrid="false"
     showborder="true"
     width="200mm"
     showguides="true"
     inkscape:guide-bbox="true"
     inkscape:window-width="1920"
     inkscape:window-height="1014"
     inkscape:window-x="0"
     inkscape:window-y="66"
     inkscape:window-maximized="0">
    <inkscape:grid
       type="xygrid"
       id="grid815"
       units="mm"
       spacingx="10"
       spacingy="10"
       empspacing="4"
       dotted="false" />
  </sodipodi:namedview>
  <metadata
     id="metadata5">
    <rdf:RDF>
      <cc:Work
         rdf:about="">
        <dc:format>image/svg+xml</dc:format>
        <dc:type
           rdf:resource="http://purl.org/dc/dcmitype/StillImage" />
        <dc:title />
      </cc:Work>
    </rdf:RDF>
  </metadata>
  <g
     inkscape:label="Layer 1"
     inkscape:groupmode="layer"
     id="layer1"
     transform="translate(0,-177)">
    <ellipse
       style="opacity:1;vector-effect:none;fill:#000000;fill-opacity:0.12000002;stroke:#000000;stroke-width:0.14044084;stroke-linecap:butt;stroke-linejoin:miter;stroke-miterlimit:4;stroke-dasharray:none;stroke-dashoffset:0;stroke-opacity:1;marker-start:none;marker-end:none"
       id="path50"
       cx="38.570175"
       cy="-204.20882"
       ry="14.893733"
       rx="14.893732"
       transform="scale(1,-1)" />
    <g
       id="surface1"
       transform="matrix(0.79375,0,0,0.79375,93.691641,148.32129)"
       style="fill:none;fill-opacity:1;marker-end:none;marker-start:none;stroke:black;stroke-dasharray:1.327,1.327;stroke-opacity:1;stroke-width:0.17693333">
      <g
         id="g72"
         style="fill:none;fill-opacity:1;marker-end:none;marker-start:none;stroke:black;stroke-dasharray:1.327,1.327;stroke-opacity:1;stroke-width:0.17693333">
        <g
           id="use70"
           transform="matrix(0.26458333,0,0,0.26458333,11.955,196.66)"
           style="fill:none;fill-opacity:1;marker-end:none;marker-start:none;stroke:black;stroke-dasharray:5.01543313,5.01543313;stroke-opacity:1;stroke-width:0.66872442">
          <path
             inkscape:connector-curvature="0"
             style="stroke:black;fill:none;fill-opacity:1;marker-end:none;marker-start:none;stroke-dasharray:5.01543313,5.01543313;stroke-opacity:1;stroke-width:0.66872442"
             d="m 1.53125,-6.84375 c 0.515625,0.15625 0.9375,0.171875 1.0625,0.171875 1.34375,0 2.21875,-0.984375 2.21875,-1.15625 0,-0.046875 -0.03125,-0.109375 -0.109375,-0.109375 -0.015625,0 -0.046875,0 -0.15625,0.046875 C 3.890625,-7.609375 3.3125,-7.5625 3,-7.5625 c -0.78125,0 -1.34375,-0.25 -1.578125,-0.34375 C 1.34375,-7.9375 1.3125,-7.9375 1.296875,-7.9375 c -0.09375,0 -0.09375,0.078125 -0.09375,0.265625 V -4.125 c 0,0.21875 0,0.28125 0.140625,0.28125 0.0625,0 0.078125,0 0.203125,-0.15625 C 1.875,-4.484375 2.4375,-4.765625 3.03125,-4.765625 c 0.640625,0 0.953125,0.578125 1.046875,0.78125 0.203125,0.46875 0.21875,1.0625 0.21875,1.515625 0,0.453125 0,1.125 -0.34375,1.671875 -0.265625,0.421875 -0.71875,0.71875 -1.25,0.71875 -0.796875,0 -1.5625,-0.53125 -1.78125,-1.40625 0.0625,0.03125 0.125,0.03125 0.1875,0.03125 0.203125,0 0.53125,-0.109375 0.53125,-0.515625 0,-0.34375 -0.234375,-0.53125 -0.53125,-0.53125 -0.21875,0 -0.53125,0.109375 -0.53125,0.578125 0,1.015625 0.828125,2.171875 2.140625,2.171875 1.359375,0 2.546875,-1.140625 2.546875,-2.65625 0,-1.421875 -0.96875,-2.609375 -2.21875,-2.609375 -0.6875,0 -1.203125,0.3125 -1.515625,0.640625 z m 0,0"
             id="path22" />
        </g>
      </g>
    </g>
    <ellipse
       style="opacity:1;vector-effect:none;fill:#000000;fill-opacity:0.12000002;stroke:#000000;stroke-width:0.14044085;stroke-linecap:butt;stroke-linejoin:miter;stroke-miterlimit:4;stroke-dasharray:none;stroke-dashoffset:0;stroke-opacity:1;marker-start:none;marker-end:none"
       id="path50-3"
       cx="80.338852"
       cy="-204.61972"
       ry="14.893733"
       rx="14.893732"
       transform="scale(1,-1)" />
    <ellipse
       style="opacity:1;vector-effect:none;fill:#000000;fill-opacity:0.12000002;stroke:#000000;stroke-width:0.14044085;stroke-linecap:butt;stroke-linejoin:miter;stroke-miterlimit:4;stroke-dasharray:none;stroke-dashoffset:0;stroke-opacity:1;marker-start:none;marker-end:none"
       id="path50-6"
       cx="146.94296"
       cy="-203.86714"
       ry="14.893733"
       rx="14.893732"
       transform="scale(1,-1)" />
    <ellipse
       style="opacity:1;vector-effect:none;fill:#000000;fill-opacity:0.12000002;stroke:#000000;stroke-width:0.14044085;stroke-linecap:butt;stroke-linejoin:miter;stroke-miterlimit:4;stroke-dasharray:none;stroke-dashoffset:0;stroke-opacity:1;marker-start:none;marker-end:none"
       id="path50-7"
       cx="38.005737"
       cy="-261.44019"
       ry="14.893733"
       rx="14.893732"
       transform="scale(1,-1)" />
    <ellipse
       style="opacity:1;vector-effect:none;fill:#000000;fill-opacity:0.12000002;stroke:#000000;stroke-width:0.14044085;stroke-linecap:butt;stroke-linejoin:miter;stroke-miterlimit:4;stroke-dasharray:none;stroke-dashoffset:0;stroke-opacity:1;marker-start:none;marker-end:none"
       id="path50-5"
       cx="79.962563"
       cy="-260.87573"
       ry="14.893733"
       rx="14.893732"
       transform="scale(1,-1)" />
    <ellipse
       style="opacity:1;vector-effect:none;fill:#000000;fill-opacity:0.12000002;stroke:#000000;stroke-width:0.14044085;stroke-linecap:butt;stroke-linejoin:miter;stroke-miterlimit:4;stroke-dasharray:none;stroke-dashoffset:0;stroke-opacity:1;marker-start:none;marker-end:none"
       id="path50-35"
       cx="147.69556"
       cy="-260.31128"
       ry="14.893733"
       rx="14.893732"
       transform="scale(1,-1)" />
    <path
       style="fill:none;stroke:#000000;stroke-width:0.26458332px;stroke-linecap:butt;stroke-linejoin:miter;stroke-opacity:1"
       d="m 38.005736,219.48335 v 26.52876"
       id="path81"
       inkscape:connector-curvature="0" />
    <path
       style="fill:none;stroke:#000000;stroke-width:0.26458332px;stroke-linecap:butt;stroke-linejoin:miter;stroke-opacity:1"
       d="m 80.150711,219.95372 v 26.52876"
       id="path81-6"
       inkscape:connector-curvature="0" />
    <path
       style="fill:none;stroke:#000000;stroke-width:0.26458332px;stroke-linecap:butt;stroke-linejoin:miter;stroke-opacity:1"
       d="m 147.69556,218.63669 v 26.52876"
       id="path81-2"
       inkscape:connector-curvature="0" />
    <text
       id="text129"
       xml:space="preserve"
       style="font-size:2.64583325px;font-family:'FiraMono Nerd Font';-inkscape-font-specification:'FiraMono Nerd Font, Normal';fill:#000000;fill-opacity:1;stroke:none;stroke-width:0.26458332"
       y="235.6427"
       x="106.87612"><tspan
         id="tspan127"
         sodipodi:role="line"
         x="106.87612"
         y="235.6427"
         style="stroke-width:0.26458332">$ \cdots$</tspan></text>
  </g>
</svg>
